<svg width="325" height="100" viewBox="0 0 325 100" fill="none" xmlns="http://www.w3.org/2000/svg">
<path d="M0.4367 4.8595C0.4367 3.20936 0.694534 2.12646 1.2102 1.6108C1.829 0.991998 2.96347 0.682599 4.6136 0.682599H14.0503V8.88169C14.0503 10.5318 13.7409 11.6663 13.1221 12.2851C12.6064 12.8008 11.5235 13.0586 9.8734 13.0586H0.4367V4.8595ZM13.4315 21.4124V95.8231C13.4315 97.4732 13.1221 98.6077 12.5033 99.2265C11.9876 99.7422 10.9047 100 9.2546 100H1.0555V25.5893C1.0555 23.9392 1.31333 22.8563 1.829 22.3406C2.4478 21.7218 3.58227 21.4124 5.2324 21.4124H13.4315ZM45.4484 65.1925C42.7669 65.1925 40.5495 64.9862 38.7963 64.5737C37.1461 64.1612 35.8054 63.4392 34.7741 62.4079C33.8459 61.2734 33.1755 59.8296 32.763 58.0763C32.4536 56.323 32.2989 54.1057 32.2989 51.4242V36.1089C32.2989 30.746 33.3818 26.9816 35.5476 24.8158C37.8165 22.5469 41.6324 21.4124 46.9954 21.4124H67.7252C69.3753 21.4124 70.4066 21.7218 70.8192 22.3406C71.3348 22.8563 71.5927 23.9392 71.5927 25.5893V30.385H51.1723C47.9751 30.385 45.964 31.0554 45.139 32.3961C44.3139 33.7368 43.9014 36.0058 43.9014 39.2029V47.402C43.9014 49.2584 43.9529 50.8054 44.0561 52.043C44.2623 53.1775 44.6233 54.0541 45.139 54.6729C45.6546 55.2917 46.3766 55.7042 47.3048 55.9105C48.3361 56.1168 49.6253 56.2199 51.1723 56.2199H59.9902C62.6716 56.2199 64.8374 56.4262 66.4876 56.8387C68.2408 57.2512 69.5816 58.0247 70.5098 59.1592C71.5411 60.1905 72.2115 61.5828 72.5209 63.3361C72.9334 65.0894 73.1397 67.3067 73.1397 69.9882V85.3035C73.1397 90.6664 72.0052 94.4824 69.7363 96.7513C67.5705 98.9171 63.8061 100 58.4432 100H36.1664C34.5162 100 33.4333 99.7422 32.9177 99.2265C32.5051 98.6077 32.2989 97.4732 32.2989 95.8231V91.0274H54.2663C57.4634 91.0274 59.4745 90.357 60.2996 89.0163C61.1246 87.6756 61.5372 85.4066 61.5372 82.2095V74.0104C61.5372 70.8133 61.1246 68.5443 60.2996 67.2036C59.4745 65.8629 57.4634 65.1925 54.2663 65.1925H45.4484ZM103.461 65.1925C100.779 65.1925 98.562 64.9862 96.8088 64.5737C95.1586 64.1612 93.8179 63.4392 92.7866 62.4079C91.8584 61.2734 91.188 59.8296 90.7755 58.0763C90.4661 56.323 90.3114 54.1057 90.3114 51.4242V36.1089C90.3114 30.746 91.3943 26.9816 93.5601 24.8158C95.829 22.5469 99.6449 21.4124 105.008 21.4124H125.738C127.388 21.4124 128.419 21.7218 128.832 22.3406C129.347 22.8563 129.605 23.9392 129.605 25.5893V30.385H109.185C105.988 30.385 103.977 31.0554 103.151 32.3961C102.326 33.7368 101.914 36.0058 101.914 39.2029V47.402C101.914 49.2584 101.965 50.8054 102.069 52.043C102.275 53.1775 102.636 54.0541 103.151 54.6729C103.667 55.2917 104.389 55.7042 105.317 55.9105C106.349 56.1168 107.638 56.2199 109.185 56.2199H118.003C120.684 56.2199 122.85 56.4262 124.5 56.8387C126.253 57.2512 127.594 58.0247 128.522 59.1592C129.554 60.1905 130.224 61.5828 130.533 63.3361C130.946 65.0894 131.152 67.3067 131.152 69.9882V85.3035C131.152 90.6664 130.018 94.4824 127.749 96.7513C125.583 98.9171 121.819 100 116.456 100H94.1789C92.5287 100 91.4458 99.7422 90.9302 99.2265C90.5176 98.6077 90.3114 97.4732 90.3114 95.8231V91.0274H112.279C115.476 91.0274 117.487 90.357 118.312 89.0163C119.137 87.6756 119.55 85.4066 119.55 82.2095V74.0104C119.55 70.8133 119.137 68.5443 118.312 67.2036C117.487 65.8629 115.476 65.1925 112.279 65.1925H103.461ZM188.082 100V25.5893C188.082 23.9392 188.34 22.8563 188.855 22.3406C189.474 21.7218 190.609 21.4124 192.259 21.4124H200.458V95.8231C200.458 97.4732 200.148 98.6077 199.53 99.2265C199.014 99.7422 197.931 100 196.281 100H188.082ZM149.407 25.5893C149.407 23.9392 149.665 22.8563 150.18 22.3406C150.799 21.7218 151.934 21.4124 153.584 21.4124H161.783V82.2095C161.783 85.4066 162.195 87.6756 163.02 89.0163C163.845 90.357 165.857 91.0274 169.054 91.0274H181.894V95.8231C181.894 97.4732 181.636 98.6077 181.12 99.2265C180.708 99.7422 179.676 100 178.026 100H164.103C158.74 100 154.924 98.9171 152.655 96.7513C150.49 94.4824 149.407 90.6664 149.407 85.3035V25.5893ZM262.181 91.0274V95.8231C262.181 97.4732 261.923 98.6077 261.407 99.2265C260.995 99.7422 259.963 100 258.313 100H234.953C229.591 100 225.775 98.9171 223.506 96.7513C221.34 94.4824 220.257 90.6664 220.257 85.3035V36.1089C220.257 30.746 221.34 26.9816 223.506 24.8158C225.775 22.5469 229.591 21.4124 234.953 21.4124H251.97C257.333 21.4124 261.098 22.5469 263.264 24.8158C265.532 26.9816 266.667 30.746 266.667 36.1089V53.4353C266.667 58.7982 265.532 62.6142 263.264 64.8831C261.098 67.0489 257.333 68.1318 251.97 68.1318H242.688C241.038 68.1318 239.955 67.874 239.44 67.3583C239.027 66.7395 238.821 65.605 238.821 63.9549V59.1592H247.794C250.991 59.1592 253.002 58.4888 253.827 57.1481C254.652 55.8074 255.064 53.5384 255.064 50.3413V38.4294C255.064 35.2323 254.549 33.118 253.517 32.0867C252.486 30.9522 250.372 30.385 247.175 30.385H240.523C237.119 30.385 234.953 31.0038 234.025 32.2414C233.097 33.3759 232.633 35.6964 232.633 39.2029V82.2095C232.633 85.4066 233.045 87.6756 233.871 89.0163C234.696 90.357 236.707 91.0274 239.904 91.0274H262.181ZM296.383 65.1925C293.701 65.1925 291.484 64.9862 289.731 64.5737C288.08 64.1612 286.74 63.4392 285.708 62.4079C284.78 61.2734 284.11 59.8296 283.697 58.0763C283.388 56.323 283.233 54.1057 283.233 51.4242V36.1089C283.233 30.746 284.316 26.9816 286.482 24.8158C288.751 22.5469 292.567 21.4124 297.93 21.4124H318.659C320.31 21.4124 321.341 21.7218 321.753 22.3406C322.269 22.8563 322.527 23.9392 322.527 25.5893V30.385H302.107C298.909 30.385 296.898 31.0554 296.073 32.3961C295.248 33.7368 294.836 36.0058 294.836 39.2029V47.402C294.836 49.2584 294.887 50.8054 294.99 52.043C295.197 53.1775 295.558 54.0541 296.073 54.6729C296.589 55.2917 297.311 55.7042 298.239 55.9105C299.27 56.1168 300.56 56.2199 302.107 56.2199H310.924C313.606 56.2199 315.772 56.4262 317.422 56.8387C319.175 57.2512 320.516 58.0247 321.444 59.1592C322.475 60.1905 323.146 61.5828 323.455 63.3361C323.868 65.0894 324.074 67.3067 324.074 69.9882V85.3035C324.074 90.6664 322.939 94.4824 320.671 96.7513C318.505 98.9171 314.74 100 309.377 100H287.101C285.45 100 284.368 99.7422 283.852 99.2265C283.439 98.6077 283.233 97.4732 283.233 95.8231V91.0274H305.201C308.398 91.0274 310.409 90.357 311.234 89.0163C312.059 87.6756 312.471 85.4066 312.471 82.2095V74.0104C312.471 70.8133 312.059 68.5443 311.234 67.2036C310.409 65.8629 308.398 65.1925 305.201 65.1925H296.383Z" fill="#FFFBFB"/>
</svg>
