<svg width="525" height="126" viewBox="0 0 525 126" fill="none" xmlns="http://www.w3.org/2000/svg">
<path d="M28.1355 43.4412C31.0119 43.4412 32.8213 42.838 33.5636 41.6318C34.3059 40.4256 34.677 38.3843 34.677 35.5079V16.5793C34.677 13.7029 34.3059 11.6616 33.5636 10.4553C32.8213 9.24909 31.0119 8.64597 28.1355 8.64597H11.1555V94.2421C11.1555 95.7267 10.8771 96.7474 10.3204 97.3041C9.85645 97.768 8.88219 98 7.39759 98H0.0210128V4.33137C0.0210128 2.84677 0.252981 1.87251 0.716917 1.40858C1.27364 0.851849 2.2943 0.573486 3.77889 0.573486H32.5893C37.4142 0.573486 40.801 1.59415 42.7495 3.63546C44.7908 5.584 45.8115 8.97073 45.8115 13.7957V38.2915C45.8115 42.6525 45.0228 45.8536 43.4454 47.8949C41.868 49.8435 39.1772 51.0033 35.3729 51.3745L49.4302 98H42.332C40.8474 98 39.7339 97.768 38.9916 97.3041C38.3421 96.7474 37.7854 95.7267 37.3214 94.2421L24.3776 51.5136H20.2022C18.7176 51.5136 17.7434 51.2817 17.2794 50.8177C16.9083 50.261 16.7227 49.2403 16.7227 47.7558V43.4412H28.1355ZM100.776 89.9275V94.2421C100.776 95.7267 100.544 96.7474 100.08 97.3041C99.7088 97.768 98.781 98 97.2964 98H76.2801C71.4552 98 68.022 97.0257 65.9807 95.0772C64.0322 93.0359 63.0579 89.6028 63.0579 84.7778V40.5184C63.0579 35.6934 64.0322 32.3067 65.9807 30.3582C68.022 28.3168 71.4552 27.2962 76.2801 27.2962H91.59C96.4149 27.2962 99.8016 28.3168 101.75 30.3582C103.791 32.3067 104.812 35.6934 104.812 40.5184V56.1066C104.812 60.9315 103.791 64.3647 101.75 66.406C99.8016 68.3545 96.4149 69.3288 91.59 69.3288H83.2391C81.7545 69.3288 80.7803 69.0968 80.3163 68.6329C79.9452 68.0761 79.7596 67.0555 79.7596 65.5709V61.2563H87.8321C90.7085 61.2563 92.5178 60.6532 93.2601 59.4469C94.0024 58.2407 94.3736 56.1994 94.3736 53.323V42.6061C94.3736 39.7297 93.9097 37.8275 92.9818 36.8997C92.0539 35.879 90.1518 35.3687 87.2754 35.3687H81.2906C78.2286 35.3687 76.2801 35.9254 75.445 37.0388C74.6099 38.0595 74.1924 40.1472 74.1924 43.302V81.9942C74.1924 84.8706 74.5635 86.9119 75.3058 88.1182C76.0481 89.3244 77.8575 89.9275 80.7339 89.9275H100.776ZM153.537 27.2962C158.362 27.2962 161.749 28.3168 163.698 30.3582C165.739 32.3067 166.76 35.6934 166.76 40.5184V84.7778C166.76 89.6028 165.739 93.0359 163.698 95.0772C161.749 97.0257 158.362 98 153.537 98H140.315C137.624 98 135.676 97.3505 134.47 96.0515C133.356 94.6597 132.521 92.6183 131.964 89.9275V122.217C131.964 123.702 131.686 124.676 131.129 125.14C130.665 125.697 129.691 125.975 128.206 125.975H120.83V31.0541C120.83 29.5695 121.062 28.5952 121.526 28.1313C122.083 27.5746 123.103 27.2962 124.588 27.2962H131.964V89.9275H149.084C151.96 89.9275 153.769 89.3244 154.512 88.1182C155.254 86.9119 155.625 84.8706 155.625 81.9942V43.302C155.625 40.4256 155.254 38.3843 154.512 37.178C153.769 35.9718 151.96 35.3687 149.084 35.3687H137.532V31.0541C137.532 29.5695 137.717 28.5952 138.088 28.1313C138.552 27.5746 139.526 27.2962 141.011 27.2962H153.537ZM184.297 40.5184C184.297 35.6934 185.272 32.3067 187.22 30.3582C189.261 28.3168 192.695 27.2962 197.52 27.2962H217.005C221.83 27.2962 225.217 28.3168 227.165 30.3582C229.206 32.3067 230.227 35.6934 230.227 40.5184V84.7778C230.227 89.6028 229.206 93.0359 227.165 95.0772C225.217 97.0257 221.83 98 217.005 98H197.52C192.695 98 189.261 97.0257 187.22 95.0772C185.272 93.0359 184.297 89.6028 184.297 84.7778V40.5184ZM201.973 35.3687C199.097 35.3687 197.288 35.9718 196.545 37.178C195.803 38.3843 195.432 40.4256 195.432 43.302V81.9942C195.432 84.8706 195.803 86.9119 196.545 88.1182C197.288 89.3244 199.097 89.9275 201.973 89.9275H212.551C215.427 89.9275 217.237 89.3244 217.979 88.1182C218.721 86.9119 219.093 84.8706 219.093 81.9942V43.302C219.093 40.4256 218.721 38.3843 217.979 37.178C217.237 35.9718 215.427 35.3687 212.551 35.3687H201.973ZM258.767 66.6843C256.354 66.6843 254.359 66.4988 252.782 66.1276C251.297 65.7565 250.091 65.107 249.163 64.1791C248.328 63.1584 247.725 61.8594 247.354 60.282C247.076 58.7046 246.936 56.7097 246.936 54.2973V40.5184C246.936 35.6934 247.911 32.3067 249.859 30.3582C251.9 28.3168 255.334 27.2962 260.158 27.2962H278.809C280.293 27.2962 281.221 27.5746 281.592 28.1313C282.056 28.5952 282.288 29.5695 282.288 31.0541V35.3687H263.916C261.04 35.3687 259.231 35.9718 258.488 37.178C257.746 38.3843 257.375 40.4256 257.375 43.302V50.6786C257.375 52.3487 257.421 53.7405 257.514 54.854C257.7 55.8746 258.024 56.6633 258.488 57.22C258.952 57.7768 259.602 58.1479 260.437 58.3335C261.365 58.5191 262.525 58.6119 263.916 58.6119H271.85C274.262 58.6119 276.211 58.7974 277.695 59.1686C279.273 59.5397 280.479 60.2356 281.314 61.2563C282.242 62.1842 282.845 63.4368 283.123 65.0142C283.494 66.5915 283.68 68.5865 283.68 70.9989V84.7778C283.68 89.6028 282.659 93.0359 280.618 95.0772C278.67 97.0257 275.283 98 270.458 98H250.416C248.931 98 247.957 97.768 247.493 97.3041C247.122 96.7474 246.936 95.7267 246.936 94.2421V89.9275H266.7C269.576 89.9275 271.386 89.3244 272.128 88.1182C272.87 86.9119 273.241 84.8706 273.241 81.9942V74.6176C273.241 71.7412 272.87 69.6999 272.128 68.4937C271.386 67.2875 269.576 66.6843 266.7 66.6843H258.767ZM299.686 12.4039C299.686 10.9193 299.918 9.94499 300.382 9.48105C300.938 8.92433 301.959 8.64597 303.444 8.64597H311.934V16.0225C311.934 17.5071 311.655 18.5278 311.099 19.0845C310.635 19.5485 309.66 19.7804 308.176 19.7804H299.686V12.4039ZM311.377 27.2962V94.2421C311.377 95.7267 311.099 96.7474 310.542 97.3041C310.078 97.768 309.104 98 307.619 98H300.243V31.0541C300.243 29.5695 300.475 28.5952 300.938 28.1313C301.495 27.5746 302.516 27.2962 304 27.2962H311.377ZM354.378 27.2962C355.863 27.2962 356.791 27.5746 357.162 28.1313C357.626 28.5952 357.858 29.5695 357.858 31.0541V35.3687H340.739V81.9942C340.739 84.8706 341.11 86.9119 341.852 88.1182C342.594 89.3244 344.404 89.9275 347.28 89.9275H359.389C359.203 92.6183 358.647 94.6597 357.719 96.0515C356.884 97.3505 355.121 98 352.43 98H342.826C338.001 98 334.568 97.0257 332.527 95.0772C330.578 93.0359 329.604 89.6028 329.604 84.7778V14.9091C329.604 13.4245 329.836 12.4502 330.3 11.9863C330.857 11.4296 331.878 11.1512 333.362 11.1512H340.739V27.2962H354.378ZM371.457 40.5184C371.457 35.6934 372.432 32.3067 374.38 30.3582C376.422 28.3168 379.855 27.2962 384.68 27.2962H404.165C408.99 27.2962 412.377 28.3168 414.325 30.3582C416.366 32.3067 417.387 35.6934 417.387 40.5184V84.7778C417.387 89.6028 416.366 93.0359 414.325 95.0772C412.377 97.0257 408.99 98 404.165 98H384.68C379.855 98 376.422 97.0257 374.38 95.0772C372.432 93.0359 371.457 89.6028 371.457 84.7778V40.5184ZM389.133 35.3687C386.257 35.3687 384.448 35.9718 383.705 37.178C382.963 38.3843 382.592 40.4256 382.592 43.302V81.9942C382.592 84.8706 382.963 86.9119 383.705 88.1182C384.448 89.3244 386.257 89.9275 389.133 89.9275H399.711C402.588 89.9275 404.397 89.3244 405.139 88.1182C405.881 86.9119 406.253 84.8706 406.253 81.9942V43.302C406.253 40.4256 405.881 38.3843 405.139 37.178C404.397 35.9718 402.588 35.3687 399.711 35.3687H389.133ZM446.344 35.3687V94.2421C446.344 95.7267 446.066 96.7474 445.509 97.3041C445.045 97.768 444.071 98 442.586 98H435.21V31.0541C435.21 29.5695 435.442 28.5952 435.906 28.1313C436.462 27.5746 437.483 27.2962 438.968 27.2962H446.344V35.3687C447.55 32.2139 448.803 30.0798 450.102 28.9664C451.401 27.8529 453.396 27.2962 456.087 27.2962H461.515C463 27.2962 463.927 27.5746 464.299 28.1313C464.762 28.5952 464.994 29.5695 464.994 31.0541V35.3687H446.344ZM524.365 27.2962L498.06 122.217C497.596 123.702 497.039 124.676 496.39 125.14C495.833 125.697 494.812 125.975 493.328 125.975H487.204L494.58 98H490.961L473.842 31.0541C473.286 28.5488 474.213 27.2962 476.626 27.2962H482.889L494.719 72.2516L497.503 89.0924H498.338L501.818 72.3907L513.926 31.0541C514.297 29.5695 514.808 28.5952 515.457 28.1313C516.107 27.5746 517.174 27.2962 518.658 27.2962H524.365Z" fill="#FFFBFB"/>
</svg>
